<?xml version="1.0" encoding="UTF-8" standalone="no"?>
<svg
   xmlns:dc="http://purl.org/dc/elements/1.1/"
   xmlns:cc="http://creativecommons.org/ns#"
   xmlns:rdf="http://www.w3.org/1999/02/22-rdf-syntax-ns#"
   xmlns:svg="http://www.w3.org/2000/svg"
   xmlns="http://www.w3.org/2000/svg"
   xmlns:sodipodi="http://sodipodi.sourceforge.net/DTD/sodipodi-0.dtd"
   xmlns:inkscape="http://www.inkscape.org/namespaces/inkscape"
   width="135mm"
   height="85mm"
   viewBox="0 0 135000 85000"
   id="svg2"
   version="1.1"
   inkscape:version="0.91 r13725"
   sodipodi:docname="FlowNOPORTS.svg">
  <metadata
     id="metadata89">
    <rdf:RDF>
      <cc:Work
         rdf:about="">
        <dc:format>image/svg+xml</dc:format>
        <dc:type
           rdf:resource="http://purl.org/dc/dcmitype/StillImage" />
        <dc:title></dc:title>
      </cc:Work>
    </rdf:RDF>
  </metadata>
  <sodipodi:namedview
     pagecolor="#ffffff"
     bordercolor="#666666"
     borderopacity="1"
     objecttolerance="10"
     gridtolerance="10"
     guidetolerance="10"
     inkscape:pageopacity="0"
     inkscape:pageshadow="2"
     inkscape:window-width="973"
     inkscape:window-height="660"
     id="namedview87"
     showgrid="false"
     inkscape:zoom="1.9512655"
     inkscape:cx="240.37362"
     inkscape:cy="158.10785"
     inkscape:window-x="0"
     inkscape:window-y="0"
     inkscape:window-maximized="0"
     inkscape:current-layer="svg2" />
  <defs
     id="defs4">
    <radialGradient
       cx="119000"
       cy="56400"
       r="2020"
       gradientUnits="userSpaceOnUse"
       id="color-1">
      <stop
         offset="1"
         stop-color="#5c6bc0"
         id="stop7" />
      <stop
         offset="1"
         stop-color="#1a237e"
         id="stop9" />
    </radialGradient>
    <radialGradient
       cx="65000"
       cy="20000"
       r="2020"
       gradientUnits="userSpaceOnUse"
       id="color-2">
      <stop
         offset="1"
         stop-color="#5c6bc0"
         id="stop12" />
      <stop
         offset="1"
         stop-color="#1a237e"
         id="stop14" />
    </radialGradient>
    <radialGradient
       cx="75000"
       cy="30000"
       r="2020"
       gradientUnits="userSpaceOnUse"
       id="color-3">
      <stop
         offset="1"
         stop-color="#5c6bc0"
         id="stop17" />
      <stop
         offset="1"
         stop-color="#1a237e"
         id="stop19" />
    </radialGradient>
    <radialGradient
       cx="30000"
       cy="40000"
       r="2020"
       gradientUnits="userSpaceOnUse"
       id="color-4">
      <stop
         offset="1"
         stop-color="#5c6bc0"
         id="stop22" />
      <stop
         offset="1"
         stop-color="#1a237e"
         id="stop24" />
    </radialGradient>
    <radialGradient
       cx="30000"
       cy="20000"
       r="2020"
       gradientUnits="userSpaceOnUse"
       id="color-5">
      <stop
         offset="1"
         stop-color="#5c6bc0"
         id="stop27" />
      <stop
         offset="1"
         stop-color="#1a237e"
         id="stop29" />
    </radialGradient>
  </defs>
  <g
     fill="none"
     stroke="none"
     stroke-width="1"
     stroke-linecap="butt"
     stroke-linejoin="miter"
     stroke-miterlimit="10"
     stroke-dasharray=""
     stroke-dashoffset="0"
     font-family="sans-serif"
     font-weight="normal"
     font-size="12"
     text-anchor="start"
     mix-blend-mode="normal"
     id="g31">
    <path
       d="M112000,56500c-110.45695,0 -200,-89.54305 -200,-200l0,0c0,-110.45695 89.54305,-200 200,-200l5000,0c110.45695,0 200,89.54305 200,200l0,0c0,110.45695 -89.54305,200 -200,200z"
       fill="#1a237e"
       id="path33" />
    <path
       d="M105900,56500c-110.45695,0 -200,-89.54305 -200,-200l0,0c0,-110.45695 89.54305,-200 200,-200l6100,0c110.45695,0 200,89.54305 200,200l0,0c0,110.45695 -89.54305,200 -200,200z"
       fill="#1a237e"
       id="path35" />
    <path
       d="M94900,56500c-110.45695,0 -200,-89.54305 -200,-200l0,0c0,-110.45695 89.54305,-200 200,-200l11000,0c110.45695,0 200,89.54305 200,200l0,0c0,110.45695 -89.54305,200 -200,200z"
       fill="#1a237e"
       id="path37" />
    <path
       d="M79000,56500c-110.45695,0 -200,-89.54305 -200,-200l0,0c0,-110.45695 89.54305,-200 200,-200l6000,0c110.45695,0 200,89.54305 200,200l0,0c0,110.45695 -89.54305,200 -200,200z"
       fill="#1a237e"
       id="path41" />
    <path
       d="M72000,56500c-110.45695,0 -200,-89.54305 -200,-200l0,0c0,-110.45695 89.54305,-200 200,-200l7000,0c110.45695,0 200,89.54305 200,200l0,0c0,110.45695 -89.54305,200 -200,200z"
       fill="#1a237e"
       id="path43" />
    <path
       d="M64900,56500c-110.45695,0 -200,-89.54305 -200,-200l0,0c0,-110.45695 89.54305,-200 200,-200l7100,0c110.45695,0 200,89.54305 200,200l0,0c0,110.45695 -89.54305,200 -200,200z"
       fill="#1a237e"
       id="path45" />
    <path
       d="M65200,30000c0,110.45695 -89.54305,200 -200,200l0,0c-110.45695,0 -200,-89.54305 -200,-200l0,-10000c0,-110.45695 89.54305,-200 200,-200l0,0c110.45695,0 200,89.54305 200,200z"
       fill="#1a237e"
       id="path47" />
    <path
       d="M64600,56500c-110.45695,0 -200,-89.54305 -200,-200l0,0c0,-110.45695 89.54305,-200 200,-200l400,0c110.45695,0 200,89.54305 200,200l0,0c0,110.45695 -89.54305,200 -200,200z"
       fill="#1a237e"
       id="path49" />
    <path
       d="M 141.02344 101.33789 L 141.02344 107.11328 L 142.44141 107.11328 L 142.44141 102.75586 L 146.79883 102.75586 L 146.79883 112.89062 L 148.2168 112.89062 L 153.99219 112.89062 L 153.99219 111.47266 L 153.99219 102.75586 L 158.34961 102.75586 L 158.34961 112.89062 L 159.76758 112.89062 L 165.54297 112.89062 L 165.54297 111.47266 L 165.54297 102.75586 L 169.90234 102.75586 L 169.90234 112.89062 L 171.31836 112.89062 L 177.09375 112.89062 L 177.09375 111.47266 L 177.09375 102.75586 L 181.45312 102.75586 L 181.45312 112.89062 L 182.86914 112.89062 L 188.64648 112.89062 L 188.64648 111.47266 L 188.64648 102.75586 L 193.00391 102.75586 L 193.00391 112.89062 L 194.42188 112.89062 L 200.19727 112.89062 L 200.19727 111.47266 L 200.19727 107.11328 L 198.7793 107.11328 L 198.7793 111.47266 L 194.42188 111.47266 L 194.42188 102.75586 L 194.42188 101.33789 L 188.64648 101.33789 L 187.22852 101.33789 L 187.22852 111.47266 L 182.86914 111.47266 L 182.86914 102.75586 L 182.86914 101.33789 L 177.09375 101.33789 L 175.67773 101.33789 L 175.67773 111.47266 L 171.31836 111.47266 L 171.31836 102.75586 L 171.31836 101.33789 L 165.54297 101.33789 L 164.12695 101.33789 L 164.12695 111.47266 L 159.76758 111.47266 L 159.76758 102.75586 L 159.76758 101.33789 L 153.99219 101.33789 L 152.57422 101.33789 L 152.57422 111.47266 L 148.2168 111.47266 L 148.2168 102.75586 L 148.2168 101.33789 L 142.44141 101.33789 L 141.02344 101.33789 z M 229.60547 141.02344 L 229.60547 142.44141 L 238.46484 142.44141 L 238.46484 146.79883 L 219.33008 146.79883 L 219.33008 148.2168 L 219.33008 153.99219 L 220.74805 153.99219 L 238.46484 153.99219 L 238.46484 158.34961 L 219.33008 158.34961 L 219.33008 159.76758 L 219.33008 165.54297 L 220.74805 165.54297 L 238.46484 165.54297 L 238.46484 169.90234 L 219.33008 169.90234 L 219.33008 171.31836 L 219.33008 177.09375 L 220.74805 177.09375 L 238.46484 177.09375 L 238.46484 181.45312 L 219.33008 181.45312 L 219.33008 182.86914 L 219.33008 188.64648 L 220.74805 188.64648 L 238.46484 188.64648 L 238.46484 193.00391 L 219.33008 193.00391 L 219.33008 194.42188 L 219.33008 200.19727 L 220.74805 200.19727 L 229.60547 200.19727 L 229.60547 198.7793 L 220.74805 198.7793 L 220.74805 194.42188 L 238.46484 194.42188 L 239.88281 194.42188 L 239.88281 188.64648 L 239.88281 187.22852 L 220.74805 187.22852 L 220.74805 182.86914 L 238.46484 182.86914 L 239.88281 182.86914 L 239.88281 177.09375 L 239.88281 175.67773 L 220.74805 175.67773 L 220.74805 171.31836 L 238.46484 171.31836 L 239.88281 171.31836 L 239.88281 165.54297 L 239.88281 164.125 L 220.74805 164.125 L 220.74805 159.76758 L 238.46484 159.76758 L 239.88281 159.76758 L 239.88281 153.99219 L 239.88281 152.57422 L 220.74805 152.57422 L 220.74805 148.2168 L 238.46484 148.2168 L 239.88281 148.2168 L 239.88281 142.44141 L 239.88281 141.02344 L 229.60547 141.02344 z "
       transform="matrix(282.22224,0,0,282.22224,-0.00430637,0)"
       id="path51"
       style="fill:#000000;fill-opacity:1" />
    <path
       d="M64800,30000c0,-110.45695 89.54305,-200 200,-200l0,0c110.45695,0 200,89.54305 200,200l0,10000c0,110.45695 -89.54305,200 -200,200l0,0c-110.45695,0 -200,-89.54305 -200,-200z"
       fill="#1a237e"
       id="path53" />
    <path
       d="M70000,30200c-110.45695,0 -200,-89.54305 -200,-200l0,0c0,-110.45695 89.54305,-200 200,-200l4000,0c110.45695,0 200,89.54305 200,200l0,0c0,110.45695 -89.54305,200 -200,200z"
       fill="#1a237e"
       id="path55" />
    <path
       d="M65000,30200c-110.45695,0 -200,-89.54305 -200,-200l0,0c0,-110.45695 89.54305,-200 200,-200l5000,0c110.45695,0 200,89.54305 200,200l0,0c0,110.45695 -89.54305,200 -200,200z"
       fill="#1a237e"
       id="path57" />
    <path
       d="M56300,30200c-110.45695,0 -200,-89.54305 -200,-200l0,0c0,-110.45695 89.54305,-200 200,-200l8800,0c110.45695,0 200,89.54305 200,200l0,0c0,110.45695 -89.54305,200 -200,200z"
       fill="#1a237e"
       id="path59" />
    <path
       d="M56500,30400c0,110.45695 -89.54305,200 -200,200l0,0c-110.45695,0 -200,-89.54305 -200,-200l0,-400c0,-110.45695 89.54305,-200 200,-200l0,0c110.45695,0 200,89.54305 200,200z"
       fill="#1a237e"
       id="path61" />
    <path
       d="M30000,30200c-110.45695,0 -200,-89.54305 -200,-200l0,0c0,-110.45695 89.54305,-200 200,-200l10000,0c110.45695,0 200,89.54305 200,200l0,0c0,110.45695 -89.54305,200 -200,200z"
       fill="#1a237e"
       id="path65" />
    <path
       d="M29800,20000c0,-110.45695 89.54305,-200 200,-200l0,0c110.45695,0 200,89.54305 200,200l0,20000c0,110.45695 -89.54305,200 -200,200l0,0c-110.45695,0 -200,-89.54305 -200,-200z"
       fill="#1a237e"
       id="path67" />
  </g>
</svg>
