<?xml version="1.0" encoding="UTF-8" standalone="no"?>
<svg
   xmlns:dc="http://purl.org/dc/elements/1.1/"
   xmlns:cc="http://creativecommons.org/ns#"
   xmlns:rdf="http://www.w3.org/1999/02/22-rdf-syntax-ns#"
   xmlns:svg="http://www.w3.org/2000/svg"
   xmlns="http://www.w3.org/2000/svg"
   xmlns:sodipodi="http://sodipodi.sourceforge.net/DTD/sodipodi-0.dtd"
   xmlns:inkscape="http://www.inkscape.org/namespaces/inkscape"
   width="135mm"
   height="85mm"
   viewBox="0 0 135000 85000"
   id="svg2"
   version="1.1"
   inkscape:version="0.91 r13725"
   sodipodi:docname="FlowPORTS.svg">
  <metadata
     id="metadata89">
    <rdf:RDF>
      <cc:Work
         rdf:about="">
        <dc:format>image/svg+xml</dc:format>
        <dc:type
           rdf:resource="http://purl.org/dc/dcmitype/StillImage" />
        <dc:title></dc:title>
      </cc:Work>
    </rdf:RDF>
  </metadata>
  <sodipodi:namedview
     pagecolor="#ffffff"
     bordercolor="#666666"
     borderopacity="1"
     objecttolerance="10"
     gridtolerance="10"
     guidetolerance="10"
     inkscape:pageopacity="0"
     inkscape:pageshadow="2"
     inkscape:window-width="973"
     inkscape:window-height="660"
     id="namedview87"
     showgrid="false"
     inkscape:zoom="1.9512655"
     inkscape:cx="240.37362"
     inkscape:cy="158.10785"
     inkscape:window-x="0"
     inkscape:window-y="0"
     inkscape:window-maximized="0"
     inkscape:current-layer="svg2" />
  <defs
     id="defs4">
    <radialGradient
       cx="119000"
       cy="56400"
       r="2020"
       gradientUnits="userSpaceOnUse"
       id="color-1">
      <stop
         offset="1"
         stop-color="#5c6bc0"
         id="stop7" />
      <stop
         offset="1"
         stop-color="#1a237e"
         id="stop9" />
    </radialGradient>
    <radialGradient
       cx="65000"
       cy="20000"
       r="2020"
       gradientUnits="userSpaceOnUse"
       id="color-2">
      <stop
         offset="1"
         stop-color="#5c6bc0"
         id="stop12" />
      <stop
         offset="1"
         stop-color="#1a237e"
         id="stop14" />
    </radialGradient>
    <radialGradient
       cx="75000"
       cy="30000"
       r="2020"
       gradientUnits="userSpaceOnUse"
       id="color-3">
      <stop
         offset="1"
         stop-color="#5c6bc0"
         id="stop17" />
      <stop
         offset="1"
         stop-color="#1a237e"
         id="stop19" />
    </radialGradient>
    <radialGradient
       cx="30000"
       cy="40000"
       r="2020"
       gradientUnits="userSpaceOnUse"
       id="color-4">
      <stop
         offset="1"
         stop-color="#5c6bc0"
         id="stop22" />
      <stop
         offset="1"
         stop-color="#1a237e"
         id="stop24" />
    </radialGradient>
    <radialGradient
       cx="30000"
       cy="20000"
       r="2020"
       gradientUnits="userSpaceOnUse"
       id="color-5">
      <stop
         offset="1"
         stop-color="#5c6bc0"
         id="stop27" />
      <stop
         offset="1"
         stop-color="#1a237e"
         id="stop29" />
    </radialGradient>
  </defs>
  <g
     fill="none"
     stroke="none"
     stroke-width="1"
     stroke-linecap="butt"
     stroke-linejoin="miter"
     stroke-miterlimit="10"
     stroke-dasharray=""
     stroke-dashoffset="0"
     font-family="sans-serif"
     font-weight="normal"
     font-size="12"
     text-anchor="start"
     mix-blend-mode="normal"
     id="g31">
    <path
       d="M116980,56400c0,-1115.61519 904.38481,-2020 2020,-2020c1115.61519,0 2020,904.38481 2020,2020c0,1115.61519 -904.38481,2020 -2020,2020c-1115.61519,0 -2020,-904.38481 -2020,-2020z"
       fill="url(#color-1)"
       id="path77" />
    <path
       d="M62980,20000c0,-1115.61519 904.38481,-2020 2020,-2020c1115.61519,0 2020,904.38481 2020,2020c0,1115.61519 -904.38481,2020 -2020,2020c-1115.61519,0 -2020,-904.38481 -2020,-2020z"
       fill="url(#color-2)"
       id="path79" />
    <path
       d="M72980,30000c0,-1115.61519 904.38481,-2020 2020,-2020c1115.61519,0 2020,904.38481 2020,2020c0,1115.61519 -904.38481,2020 -2020,2020c-1115.61519,0 -2020,-904.38481 -2020,-2020z"
       fill="url(#color-3)"
       id="path81" />
    <path
       d="M27980,40000c0,-1115.61519 904.38481,-2020 2020,-2020c1115.61519,0 2020,904.38481 2020,2020c0,1115.61519 -904.38481,2020 -2020,2020c-1115.61519,0 -2020,-904.38481 -2020,-2020z"
       fill="url(#color-4)"
       id="path83" />
    <path
       d="M27980,20000c0,-1115.61519 904.38481,-2020 2020,-2020c1115.61519,0 2020,904.38481 2020,2020c0,1115.61519 -904.38481,2020 -2020,2020c-1115.61519,0 -2020,-904.38481 -2020,-2020z"
       fill="url(#color-5)"
       id="path85" />
  </g>
</svg>
